<?xml version="1.0" encoding="UTF-8"?>
<svg id="_レイヤー_1" data-name="レイヤー_1" xmlns="http://www.w3.org/2000/svg" viewBox="0 0 454.78 314.88">
  <path d="M430.27,284.95c-17.72-8.03-35.31-10.79-50.86-10.8v10.8h50.86Z"/>
  <path d="M47.15,119.53h8.84c-2.85-.24-5.79-.27-8.84,0Z"/>
  <path d="M43.98,284.95c-.34-.14-.67-.28-1.01-.43v.43h1.01Z"/>
  <path d="M118.25,131.97v-12.44h-62.25c13.53,1.13,25,7.01,36.82,8.67,9.23,1.3,17.54,2.52,25.43,3.77Z"/>
  <path d="M42.98,119.53V0H0v145.56c18.97-18.39,34.1-24.89,47.15-26.03h-4.18Z"/>
  <path d="M193.52,119.63h-9.78V36.39h9.78V0h-62.35l-.09,36.39h9.69v83.24h-9.6l-.04,14.45c19.09,3.28,37.26,7.01,62.39,12.68v-27.13Z"/>
  <path d="M285.6,147.44L324.6,0h-44.95l-15.88,60.34L251.39,0h-45.04l31.96,155.27c16.38.6,30.14-3.32,47.28-7.84Z"/>
  <path d="M454.78,152.49v-32.96h-75.36v-23.11h75.27v-36.39h-75.27v-23.63h75.27V0h-118.25l-.09,36.39h.09v23.63l-.09,36.39h.09v41.05c3.36-.37,6.83-.71,10.47-1,55.75-4.34,73.34,17.11,107.86,16.02Z"/>
  <path d="M118.25,284.95H43.98c21.29,9.09,44.59,19.61,74.26,25.45v-25.45Z"/>
  <path d="M42.97,165.42H0v104.61c14.38,2.71,28.22,8.21,42.97,14.49v-119.1Z"/>
  <path d="M193.52,313.06v-28.01h-9.78v-83.24h9.78v-36.39h-62.35l-.09,36.39h9.69v83.24h-9.6l-.07,27.52c7.89,1.1,16.2,1.86,25.03,2.16,13.62.47,26.31-.35,37.39-1.68Z"/>
  <path d="M249.41,303.03v-41.19h75.18v-36.39h-75.18v-23.63h75.18v-36.39h-118.16l-.09,36.39h.09v23.63l-.09,36.39h.09v49.36c14.48-2.43,24.76-5.26,28.59-5.87,5.19-.82,9.95-1.58,14.39-2.3Z"/>
  <path d="M379.41,274.15v-12.31h75.27v-36.39h-75.27v-23.63h75.27v-36.39h-118.25l-.09,36.39h.09v23.63l-.09,36.39h.09v19.39s0,0,0,0c9.53-3.41,24.87-7.09,42.97-7.08Z"/>
  <path d="M454.78,284.95h-24.51c8.21,3.72,16.44,8.58,24.51,14.82v-14.82Z"/>
</svg>